<svg width="680" height="760" viewBox="0 0 680 760" fill="none" xmlns="http://www.w3.org/2000/svg">
  <rect width="680" height="760" fill="#5F1D3A"/>
  <circle cx="540" cy="122" r="180" fill="#D95F85" fill-opacity="0.55"/>
  <circle cx="156" cy="642" r="210" fill="#F7C76E" fill-opacity="0.35"/>
  <rect x="68" y="96" width="544" height="568" rx="42" fill="#FFF7F5"/>
  <rect x="116" y="160" width="448" height="176" rx="34" fill="#FFE0DE"/>
  <path d="M142 276C216 222 312 224 388 278C456 326 516 324 562 282V336H142V276Z" fill="#F7B7B5"/>
  <path d="M132 398C202 346 288 346 356 396C420 442 510 440 578 390" stroke="#8F3159" stroke-width="24" stroke-linecap="round"/>
  <path d="M134 398C204 346 290 346 358 396C422 442 512 440 580 390" stroke="#FFD4DF" stroke-width="13" stroke-linecap="round"/>
  <rect x="132" y="460" width="116" height="150" rx="24" fill="#8F3159"/>
  <rect x="154" y="402" width="72" height="78" rx="18" fill="#F7C76E"/>
  <rect x="276" y="444" width="116" height="166" rx="24" fill="#BF4C74"/>
  <rect x="300" y="380" width="68" height="86" rx="18" fill="#FFD1DD"/>
  <rect x="420" y="468" width="116" height="142" rx="24" fill="#FFFFFF" stroke="#E6B9C7" stroke-width="4"/>
  <rect x="444" y="404" width="68" height="86" rx="18" fill="#F7C76E"/>
  <path d="M162 536C178 522 202 522 218 536C202 554 179 554 162 536Z" fill="#FFD4DF"/>
  <path d="M306 528C322 514 346 514 362 528C346 546 323 546 306 528Z" fill="#FFF4F2"/>
  <path d="M448 536C464 522 488 522 504 536C488 554 465 554 448 536Z" fill="#D95F85"/>
  <path d="M120 232H562" stroke="#FFFFFF" stroke-width="8" stroke-linecap="round"/>
  <path d="M120 256H438" stroke="#FFFFFF" stroke-width="8" stroke-linecap="round" stroke-opacity="0.75"/>
</svg>
