<svg width="240" height="220" viewBox="0 0 240 220" fill="none" xmlns="http://www.w3.org/2000/svg">
  <rect width="240" height="220" rx="18" fill="#FFF4F2"/>
  <circle cx="204" cy="36" r="44" fill="#F7C76E" fill-opacity="0.5"/>
  <circle cx="42" cy="178" r="58" fill="#FFD1DD"/>
  <rect x="24" y="28" width="68" height="116" rx="18" fill="#8F3159"/>
  <rect x="38" y="6" width="40" height="44" rx="12" fill="#F7C76E"/>
  <rect x="116" y="42" width="54" height="118" rx="17" fill="#BF4C74"/>
  <rect x="127" y="16" width="32" height="42" rx="10" fill="#FFD1DD"/>
  <path d="M34 90C48 78 68 78 82 90C68 106 49 106 34 90Z" fill="#FFD4DF"/>
  <path d="M126 96C140 84 160 84 174 96C160 112 141 112 126 96Z" fill="#FFF4F2"/>
  <path d="M42 172C78 146 118 146 154 172C180 190 204 188 224 172" stroke="#8F3159" stroke-width="11" stroke-linecap="round"/>
  <path d="M42 172C78 146 118 146 154 172C180 190 204 188 224 172" stroke="#FFE1EA" stroke-width="6" stroke-linecap="round"/>
  <path d="M192 86C206 74 226 74 240 86V142C240 155 229 166 216 166H216C203 166 192 155 192 142V86Z" fill="#FFFFFF"/>
  <path d="M204 94C214 86 224 86 234 94V140C234 150 226 158 216 158C209 158 204 152 204 145V94Z" fill="#D95F85"/>
</svg>
