<svg width="720" height="820" viewBox="0 0 720 820" fill="none" xmlns="http://www.w3.org/2000/svg">
  <rect width="720" height="820" fill="#FFF4F2"/>
  <rect x="72" y="72" width="576" height="676" rx="46" fill="#FFE0DE"/>
  <path d="M112 728C170 626 280 566 392 594C484 616 556 662 626 742V748H112V728Z" fill="#F7B7B5"/>
  <rect x="122" y="150" width="476" height="330" rx="34" fill="#FFFFFF" stroke="#F1C7C4" stroke-width="3"/>
  <rect x="158" y="190" width="404" height="34" rx="17" fill="#8F3159"/>
  <circle cx="202" cy="207" r="8" fill="#F7C76E"/>
  <circle cx="236" cy="207" r="8" fill="#F7C76E"/>
  <circle cx="270" cy="207" r="8" fill="#F7C76E"/>
  <rect x="176" y="274" width="166" height="42" rx="21" fill="#FFF4F2"/>
  <rect x="378" y="274" width="166" height="42" rx="21" fill="#FFF4F2"/>
  <rect x="176" y="344" width="368" height="76" rx="24" fill="#F8E1EA"/>
  <path d="M214 382C244 362 292 362 322 382C291 404 245 405 214 382Z" fill="#BF4C74"/>
  <path d="M386 382C416 362 464 362 494 382C463 404 417 405 386 382Z" fill="#8F3159"/>
  <rect x="174" y="526" width="372" height="114" rx="34" fill="#FFFDFB" stroke="#E6B9C7" stroke-width="3"/>
  <rect x="206" y="560" width="128" height="32" rx="16" fill="#F8E1EA"/>
  <rect x="386" y="560" width="88" height="32" rx="16" fill="#F7C76E"/>
  <path d="M178 580C246 628 340 628 430 600C487 582 540 594 578 632" stroke="#8F3159" stroke-width="18" stroke-linecap="round"/>
  <path d="M170 578C238 626 332 626 422 598C479 580 532 592 570 630" stroke="#FFD1DD" stroke-width="10" stroke-linecap="round"/>
  <g filter="url(#shadow)">
    <rect x="424" y="446" width="92" height="168" rx="18" fill="#8F3159"/>
    <rect x="444" y="394" width="52" height="76" rx="15" fill="#F7C76E"/>
    <rect x="442" y="478" width="56" height="92" rx="14" fill="#D95F85"/>
    <path d="M454 508C466 498 481 498 493 508C480 522 467 522 454 508Z" fill="#FFF4F2"/>
  </g>
  <g filter="url(#shadow)">
    <rect x="516" y="500" width="72" height="118" rx="34" fill="#FFFFFF"/>
    <path d="M528 542C542 518 566 518 580 542V584C580 599 568 610 554 610H554C540 610 528 599 528 584V542Z" fill="#BF4C74"/>
    <path d="M542 544C550 533 559 533 567 544" stroke="#FFD9E4" stroke-width="5" stroke-linecap="round"/>
  </g>
  <g filter="url(#shadow)">
    <path d="M146 458C190 438 238 438 282 458C280 512 252 550 214 550C176 550 148 512 146 458Z" fill="#FFFFFF"/>
    <path d="M166 470C198 456 232 456 264 470C260 510 240 532 214 532C188 532 168 510 166 470Z" fill="#F7B7B5"/>
    <path d="M196 476C210 468 220 468 234 476" stroke="#8F3159" stroke-width="5" stroke-linecap="round"/>
  </g>
  <defs>
    <filter id="shadow" x="-20%" y="-20%" width="140%" height="140%" color-interpolation-filters="sRGB">
      <feDropShadow dx="0" dy="18" stdDeviation="16" flood-color="#8F3159" flood-opacity="0.18"/>
    </filter>
  </defs>
</svg>
